<?xml version="1.0" encoding="UTF-8" standalone="no"?>
<!-- Creator: CorelDRAW -->

<svg
   xmlns:dc="http://purl.org/dc/elements/1.1/"
   xmlns:cc="http://creativecommons.org/ns#"
   xmlns:rdf="http://www.w3.org/1999/02/22-rdf-syntax-ns#"
   xmlns:svg="http://www.w3.org/2000/svg"
   xmlns="http://www.w3.org/2000/svg"
   xmlns:sodipodi="http://sodipodi.sourceforge.net/DTD/sodipodi-0.dtd"
   xmlns:inkscape="http://www.inkscape.org/namespaces/inkscape"
   xml:space="preserve"
   width="0.3in"
   height="0.3in"
   style="shape-rendering:geometricPrecision; text-rendering:geometricPrecision; image-rendering:optimizeQuality; fill-rule:evenodd"
   viewBox="0 0 8500 11000"
   id="svg2"
   sodipodi:version="0.32"
   inkscape:version="0.92.4 (5da689c313, 2019-01-14)"
   sodipodi:docname="Symbol_thumbs_up.svg"
   inkscape:output_extension="org.inkscape.output.svg.inkscape"
   version="1.1"><metadata
   id="metadata12"><rdf:RDF><cc:Work
       rdf:about=""><dc:format>image/svg+xml</dc:format><dc:type
         rdf:resource="http://purl.org/dc/dcmitype/StillImage" /></cc:Work></rdf:RDF></metadata><sodipodi:namedview
   inkscape:window-height="986"
   inkscape:window-width="1920"
   inkscape:pageshadow="2"
   inkscape:pageopacity="0.0"
   guidetolerance="10.0"
   gridtolerance="10.0"
   objecttolerance="10.0"
   borderopacity="1.0"
   bordercolor="#666666"
   pagecolor="#ffffff"
   id="base"
   inkscape:zoom="25.470707"
   inkscape:cx="6.2501983"
   inkscape:cy="16.309421"
   inkscape:window-x="-11"
   inkscape:window-y="-11"
   inkscape:current-layer="svg2"
   showgrid="false"
   inkscape:window-maximized="1" />
 <defs
   id="defs4">
  <style
   type="text/css"
   id="style6">

    .str0 {stroke:#000000;stroke-width:3}
    .fil0 {fill:#000000}

  </style>
 </defs>
 <path
   style="fill:#ffffff;stroke:none;stroke-width:381.94442749px;stroke-linecap:butt;stroke-linejoin:miter;stroke-opacity:1;fill-opacity:1"
   d="m 2498.8597,863.08338 614.813,-314.90421 224.9317,284.91332 164.9496,869.73551 239.9271,569.8266 2459.252,2759.1608 389.8812,179.9451 1019.6901,89.9727 224.9316,659.7995 74.9772,1004.6945 c 0,0 0,509.8446 -29.9902,569.8263 -29.9903,59.9821 -119.9634,614.8133 -164.95,674.795 -44.9862,59.9817 -344.8951,374.8857 -344.8951,374.8857 l -899.7262,-164.9496 -644.8039,824.749 -854.7401,494.8495 -479.854,134.959 L 4107.0009,9631 l -453.4917,4.4153 -314.9041,164.9495 c 0,0 -269.9178,29.9903 -329.8999,29.9903 -59.9817,0 -509.8447,-74.9772 -509.8447,-74.9772 l -314.905,-374.8853 -104.9681,-404.8768 -224.9315,-239.9272 -284.9134,44.9866 -239.927,-299.9089 -59.9818,-614.8129 L 864.35686,7715.999 669.41617,7266.1357 879.3523,6831.2679 594.43899,6456.3822 c 0,0 -134.95896,-479.854 -134.95896,-539.8361 0,-59.9817 119.96351,-614.8129 119.96351,-614.8129 l 614.81296,-449.8629 1034.6853,-179.9455 944.7126,-29.9903 c 0,0 -134.9589,-749.7722 -179.9451,-809.7539 -44.9865,-59.9821 -494.8496,-1124.6582 -494.8496,-1124.6582 0,0 -299.9088,-824.7492 -299.9088,-959.7081 0,-134.959 299.9088,-884.73092 299.9088,-884.73092 z"
   id="path4517"
   inkscape:connector-curvature="0" /><g
   id="Layer 1"
   style="fill:#008000">
  <path
   class="fil0 str0"
   d="M7727 8644l-1133 0c-520,598 -1085,1036 -1692,1313 -191,16 -334,24 -425,24 -259,0 -552,-47 -881,-138l-272 138 -326 0c-744,0 -1117,-267 -1117,-798 0,-31 5,-75 15,-138 -546,-44 -821,-305 -821,-780 0,-51 5,-121 15,-212 -202,-57 -355,-148 -458,-275 -104,-124 -156,-285 -156,-477 0,-155 55,-324 166,-500 -272,-293 -409,-619 -409,-979 0,-415 225,-749 676,-1003 451,-251 1047,-378 1791,-378l189 0c-60,-456 -200,-897 -417,-1322l-122 -212c-262,-501 -394,-889 -394,-1161 0,-754 396,-1226 1192,-1413l220 -54 381 1687 1405 1495c96,112 261,327 500,645l212 280c228,309 389,498 482,565 94,70 244,104 451,104l889 0c272,580 409,1179 409,1790 0,596 -124,1198 -370,1799zm-252 -394c159,-461 236,-902 236,-1322 0,-495 -85,-982 -259,-1464 -637,0 -1036,-39 -1197,-114 -163,-75 -407,-342 -731,-798 -129,-176 -326,-428 -583,-749l-1526 -1625 -303 -1407c-508,174 -762,498 -762,975 0,246 85,515 259,803l98 168c397,659 594,1286 594,1884l8 213 -275 0c-803,0 -1410,80 -1814,238 -407,161 -609,402 -609,726 0,293 106,541 316,743 210,203 467,304 770,304l464 5 1376 -620c-208,-313 -487,-471 -837,-471 -91,0 -208,21 -348,59 -142,42 -308,104 -502,184l-358 16 -357 -381 616 -8c179,-75 340,-132 487,-166 146,-36 280,-54 402,-54 648,0 1122,329 1420,987l-259 122c319,156 565,430 738,819l-298 127c234,148 449,399 646,751l-469 221c256,189 464,453 622,798l-933 417c150,31 280,47 386,47l295 -8c674,-389 1221,-863 1641,-1420l1046 0zm-3462 -1101c-176,-236 -388,-389 -637,-454l-1132 508 -402 0c-381,0 -669,-54 -866,-161 -64,91 -98,179 -98,259 0,156 78,272 231,353 155,78 386,116 694,116l806 0 1404 -621zm319 888c-23,-31 -44,-57 -59,-77 -122,-140 -267,-252 -433,-332l-1164 516 -1228 -8 -23 98c0,298 295,449 889,449l570 0 1448 -646zm161 1024c-36,-44 -62,-80 -83,-106 -96,-138 -218,-259 -365,-371l-1086 485 -700 0 0 46c0,340 246,508 739,508l248 0 1247 -562z"
   id="path9"
   style="fill:#008000" />
 </g>
</svg>