<?xml version="1.0" encoding="UTF-8" standalone="no"?>
<svg
   xmlns:dc="http://purl.org/dc/elements/1.1/"
   xmlns:cc="http://creativecommons.org/ns#"
   xmlns:rdf="http://www.w3.org/1999/02/22-rdf-syntax-ns#"
   xmlns:svg="http://www.w3.org/2000/svg"
   xmlns="http://www.w3.org/2000/svg"
   viewBox="0 0 793.33331 107.83826"
   height="107.83826"
   width="793.33331"
   xml:space="preserve"
   id="svg2016"
   version="1.1"><metadata
     id="metadata2022"><rdf:RDF><cc:Work
         rdf:about=""><dc:format>image/svg+xml</dc:format><dc:type
           rdf:resource="http://purl.org/dc/dcmitype/StillImage" /><dc:title></dc:title></cc:Work></rdf:RDF></metadata><defs
     id="defs2020"><clipPath
       id="clipPath2034"
       clipPathUnits="userSpaceOnUse"><path
         id="path2032"
         d="m 0,379.6806 h 595 v 82.63889 H 0 Z" /></clipPath><clipPath
       id="clipPath2050"
       clipPathUnits="userSpaceOnUse"><path
         id="path2048"
         d="M 0,460.7245 H 595 V 379.8458 H 0 Z" /></clipPath><clipPath
       id="clipPath2056"
       clipPathUnits="userSpaceOnUse"><path
         id="path2054"
         d="m 0,379.6806 h 595 v 82.63889 H 0 Z" /></clipPath><clipPath
       id="clipPath2072"
       clipPathUnits="userSpaceOnUse"><path
         id="path2070"
         d="m 0,379.6806 h 595 v 82.63889 H 0 Z" /></clipPath></defs><g
     transform="matrix(1.3333333,0,0,-1.3333333,0,614.29932)"
     id="g2024"><g
       id="g2026" /><g
       id="g2028"><g
         clip-path="url(#clipPath2034)"
         id="g2030"><path
           id="path2036"
           style="fill:#255791;fill-opacity:1;fill-rule:nonzero;stroke:none"
           d="m 577.3759,459.1874 v -50.2968 c -2.9227,5.1209 -28.8162,50.2968 -28.8162,50.2968 h -22.8552 v -77.9312 h 17.6489 v 51.6107 c 2.9861,-5.1676 29.6536,-51.6107 29.6536,-51.6107 H 595 v 77.9312 h -17.6241" /><path
           id="path2038"
           style="fill:#255791;fill-opacity:1;fill-rule:nonzero;stroke:none"
           d="m 55.784,459.1874 c 0,0 -14.0431,-43.1292 -15.49479,-47.6523 -1.49025,4.5506 -15.44245,47.6523 -15.44245,47.6523 H 0 v -77.945 h 17.24949 v 53.2277 c 2.80421,-9.2087 16.13938,-53.2277 16.13938,-53.2277 h 13.07898 c 0,0 14.01555,44.5314 16.80324,53.4178 V 381.2424 H 80.5922 v 77.945 H 55.784" /><path
           id="path2040"
           style="fill:#255791;fill-opacity:1;fill-rule:nonzero;stroke:none"
           d="m 285.0078,381.2424 h -57.5911 v 77.945 h 57.5911 V 444.059 h -38.821 v -14.5252 h 35.5925 v -15.0953 h -35.5925 v -18.0952 h 38.821 v -15.1009" /><path
           id="path2042"
           style="fill:#ee7317;fill-opacity:1;fill-rule:nonzero;stroke:none"
           d="M 96.48917,395.3324 H 138.7287 V 381.259 H 96.48917 Z" /></g></g><g
       id="g2044"><g
         clip-path="url(#clipPath2050)"
         id="g2046"><g
           clip-path="url(#clipPath2056)"
           id="g2052"><path
             id="path2058"
             style="fill:#255791;fill-opacity:1;fill-rule:nonzero;stroke:none"
             d="m 194.9809,459.1874 c 0,0 -20.8387,-26.0863 -23.8495,-29.5241 v 29.5241 h -17.7206 v -77.945 h 17.7206 v 34.4191 c 3.1099,-3.8509 24.3536,-34.4191 24.3536,-34.4191 h 24.7146 c 0,0 -32.6865,40.4187 -33.8792,41.8346 1.2093,1.3415 32.0556,36.1104 32.0556,36.1104 h -23.3951" /><path
             id="path2060"
             style="fill:#255791;fill-opacity:1;fill-rule:nonzero;stroke:none"
             d="m 458.6266,420.3775 c 0,11.8063 5.2503,23.9129 18.04,23.9129 12.8393,0 18.0759,-12.1066 18.0759,-23.9129 0,-12.1204 -4.8481,-24.3207 -18.0759,-24.3207 -13.1588,0 -18.04,12.2003 -18.04,24.3207 m -18.8087,0.055 c 0,-24.0506 12.7237,-40.7519 36.8487,-40.7519 23.8276,0 36.8239,17.0511 36.8239,40.7519 0,23.6678 -13.2139,40.2893 -36.8239,40.2893 -23.9267,0 -36.8487,-16.313 -36.8487,-40.2893" /><path
             id="path2062"
             style="fill:#255791;fill-opacity:1;fill-rule:nonzero;stroke:none"
             d="m 334.4974,428.6221 c -8.5035,2.2643 -16.5498,3.6333 -16.704,9.1316 -0.0359,1.5646 0.493,2.8648 1.6775,3.9859 2.9943,2.84 9.8313,3.6664 15.2304,3.2505 8.1812,-0.6639 12.9853,-2.0935 19.489,-5.6966 l 3.8344,15.8529 c -9.9249,3.4212 -17.547,5.6938 -28.3534,5.5754 -19.5579,-0.2039 -31.6259,-9.8093 -31.6259,-25.103 0,-15.5939 14.8365,-19.5937 27.3012,-23.1747 8.1041,-2.267 16.2054,-3.4653 16.2054,-9.509 0,-6.0216 -9.7899,-8.1537 -16.3487,-8.1537 -7.6716,0 -14.6188,2.0798 -22.9102,6.9059 l -5.052,-15.6986 c 11.2361,-4.4102 18.0483,-6.2944 28.896,-6.2944 11.8642,0 21.6624,3.2891 27.5794,9.2391 4.3082,4.2614 6.5615,9.9166 6.5615,16.3432 -0.0496,15.8666 -13.9384,20.2713 -25.7806,23.3455" /><path
             id="path2064"
             style="fill:#255791;fill-opacity:1;fill-rule:nonzero;stroke:none"
             d="m 405.2143,428.6221 c -8.5063,2.2643 -16.6132,3.6333 -16.7399,9.1316 -0.0165,1.5646 0.5372,2.8648 1.6803,3.9859 3.0466,2.84 9.8478,3.6664 15.2276,3.2505 8.184,-0.6639 12.9798,-2.0935 19.5303,-5.6966 l 3.8042,15.8529 c -9.9277,3.4212 -17.514,5.6938 -28.3534,5.5754 -19.5386,-0.2039 -31.6121,-9.8093 -31.6121,-25.103 0,-15.5939 14.8474,-19.5937 27.3066,-23.1747 8.1069,-2.267 16.2027,-3.4653 16.2027,-9.509 0,-6.0216 -9.7734,-8.1537 -16.357,-8.1537 -7.6881,0 -14.627,2.0798 -22.9102,6.9059 l -5.0685,-15.6986 c 11.2058,-4.4102 18.0455,-6.2944 28.9263,-6.2944 11.8312,0 21.6459,3.2891 27.6124,9.2391 4.2532,4.2614 6.5285,9.9166 6.5285,16.3432 -0.0661,15.8666 -13.9963,20.2713 -25.7778,23.3455" /></g></g></g><g
       id="g2066"><g
         clip-path="url(#clipPath2072)"
         id="g2068"><path
           id="path2074"
           style="fill:#255791;fill-opacity:1;fill-rule:nonzero;stroke:none"
           d="m 122.7683,403.4971 c 6.5753,0 12.8697,1.1101 18.0429,3.5672 l -5.3716,12.6025 c -2.6444,-1.6225 -5.8508,-2.5784 -9.2941,-2.5784 -9.1426,0 -16.6958,4.5479 -16.6958,14.9549 0,10.4401 7.5532,14.9687 16.6958,14.9687 3.4433,0 6.6497,-0.9366 9.2941,-2.5233 l 5.3716,12.5694 c -5.1732,2.4213 -11.4676,3.5728 -18.0429,3.5728 -18.6405,0 -30.49096,-10.6963 -30.49096,-28.5876 0,-17.8527 11.85046,-28.5462 30.49096,-28.5462" /></g></g></g></svg>