<?xml version="1.0" encoding="UTF-8" standalone="no"?>
<!-- Creator: CorelDRAW -->

<!-- width="8.5in" -->

<!-- height="11in" -->

<svg
   xmlns:dc="http://purl.org/dc/elements/1.1/"
   xmlns:cc="http://creativecommons.org/ns#"
   xmlns:rdf="http://www.w3.org/1999/02/22-rdf-syntax-ns#"
   xmlns:svg="http://www.w3.org/2000/svg"
   xmlns="http://www.w3.org/2000/svg"
   xmlns:sodipodi="http://sodipodi.sourceforge.net/DTD/sodipodi-0.dtd"
   xmlns:inkscape="http://www.inkscape.org/namespaces/inkscape"
   xml:space="preserve"
   width="0.3in"
   height="0.3in"
   style="shape-rendering:geometricPrecision; text-rendering:geometricPrecision; image-rendering:optimizeQuality; fill-rule:evenodd"
   viewBox="0 0 8500 11000"
   id="svg2"
   version="1.1"
   inkscape:version="0.92.4 (5da689c313, 2019-01-14)"
   sodipodi:docname="Symbol_thumbs_down.svg"><metadata
   id="metadata13"><rdf:RDF><cc:Work
       rdf:about=""><dc:format>image/svg+xml</dc:format><dc:type
         rdf:resource="http://purl.org/dc/dcmitype/StillImage" /><dc:title /></cc:Work></rdf:RDF></metadata><sodipodi:namedview
   pagecolor="#ffffff"
   bordercolor="#666666"
   borderopacity="1"
   objecttolerance="10"
   gridtolerance="10"
   guidetolerance="10"
   inkscape:pageopacity="0"
   inkscape:pageshadow="2"
   inkscape:window-width="1920"
   inkscape:window-height="986"
   id="namedview11"
   showgrid="false"
   inkscape:zoom="10.788021"
   inkscape:cx="-36.825781"
   inkscape:cy="15.632954"
   inkscape:window-x="-11"
   inkscape:window-y="-11"
   inkscape:window-maximized="1"
   inkscape:current-layer="svg2" />
 <defs
   id="defs4"><inkscape:perspective
   sodipodi:type="inkscape:persp3d"
   inkscape:vp_x="0 : 495 : 1"
   inkscape:vp_y="0 : 1000 : 0"
   inkscape:vp_z="765 : 495 : 1"
   inkscape:persp3d-origin="382.5 : 330 : 1"
   id="perspective15" />
  <style
   type="text/css"
   id="style6">

    .str0 {stroke:#000000;stroke-width:3}
    .fil0 {fill:#000000}

  </style>
 </defs>
 <path
   style="fill:#ffffff;fill-opacity:1;stroke:none;stroke-width:381.94442749px;stroke-linecap:butt;stroke-linejoin:miter;stroke-opacity:1"
   d="m 999.02132,2166.306 926.28598,62.5869 1139.081,-1132.8226 976.356,-212.79579 463.143,31.2928 613.352,68.8458 c 0,0 638.386,-93.8804 675.9381,-81.3633 37.5527,12.5163 500.6951,187.76079 550.7646,256.60629 50.0695,68.8459 275.3823,438.1084 275.3823,513.2127 0,75.1042 237.8303,319.1932 237.8303,319.1932 l 375.5213,225.3128 c 0,0 143.9499,481.9191 175.2434,544.5059 31.2927,62.587 344.2277,306.6758 363.0041,331.7106 18.7764,25.0346 62.5866,413.0735 43.8106,444.367 -18.7764,31.2934 -87.6215,350.4866 -87.6215,388.0387 0,37.552 331.7103,625.8689 331.7103,625.8689 0,0 12.5164,250.3475 12.5164,306.6757 0,56.3283 -219.054,575.7995 -219.054,575.7995 0,0 -563.2821,337.9692 -594.5755,356.7453 -31.2927,18.776 -688.456,87.6216 -688.456,87.6216 0,0 -669.6796,106.3978 -694.7145,118.9152 -25.0365,12.5174 -419.3319,25.0349 -419.3319,25.0349 l 50.069,713.4907 c 0,0 212.796,669.6798 231.572,744.784 18.776,75.1043 431.8492,757.3014 431.8492,757.3014 0,0 168.9848,100.1391 168.9848,175.2434 0,75.1043 -56.3284,1076.495 -56.3284,1076.495 0,0 -244.0888,350.486 -306.6758,356.745 -62.5869,6.26 -550.7648,225.3124 -550.7648,225.3124 0,0 -269.124,-563.2814 -269.124,-588.3164 0,-25.037 -225.312,-1063.9773 -269.123,-1076.4947 -43.811,-12.5175 -1583.448,-1664.8114 -1583.448,-1664.8114 l -1001.391,-1264.2554 -707.232,-31.2935 c 0,0 -563.282,-87.6216 -582.058,-150.2085 -18.77598,-62.5869 -319.19299,-1107.788 -319.19299,-1107.788 0,0 -6.26,-894.9925 -6.26,-951.3207 0,-56.3283 312.93401,-1070.236 312.93401,-1070.236 z"
   id="path846"
   inkscape:connector-curvature="0" /><g
   id="Layer 1"
   style="fill:#ff0000;fill-opacity:1;stroke:none;stroke-opacity:0.66995072">
  <path
   class="fil0 str0"
   d="M824 2025l1133 0c520,-598 1085,-1036 1692,-1314 191,-15 334,-23 425,-23 259,0 552,47 881,137l272 -137 326 0c744,0 1117,267 1117,798 0,31 -5,75 -15,138 546,44 821,305 821,780 0,51 -5,121 -16,212 203,57 355,148 459,275 104,124 156,285 156,477 0,155 -55,323 -166,500 272,292 409,619 409,979 0,415 -225,749 -676,1003 -451,251 -1047,378 -1791,378l-189 0c60,456 200,897 417,1322l122 212c262,501 394,889 394,1161 0,754 -396,1226 -1192,1413l-220 54 -381 -1687 -1405 -1495c-96,-112 -261,-327 -500,-645l-212 -280c-228,-309 -389,-498 -482,-565 -94,-70 -244,-104 -451,-104l-889 0c-272,-580 -409,-1179 -409,-1790 0,-596 124,-1198 370,-1799zm252 394c-159,461 -236,902 -236,1322 0,495 85,982 259,1464 637,0 1036,39 1197,114 163,75 407,342 731,795 129,179 326,431 583,752l1526 1625 303 1404c508,-171 762,-495 762,-972 0,-246 -85,-515 -259,-803l-98 -168c-397,-659 -594,-1286 -594,-1884l-8 -213 275 0c803,0 1410,-80 1814,-238 407,-161 609,-402 609,-726 0,-293 -106,-541 -316,-743 -210,-203 -467,-304 -770,-304l-464 -5 -1376 620c208,313 487,471 837,471 91,0 208,-21 348,-59 142,-42 308,-104 502,-184l358 -16 357 381 -616 8c-179,75 -340,132 -487,166 -146,36 -280,54 -402,54 -648,0 -1122,-329 -1420,-987l259 -122c-319,-156 -565,-430 -736,-819l295 -127c-233,-148 -448,-399 -645,-754l469 -218c-256,-189 -464,-453 -622,-798l933 -417c-150,-31 -280,-47 -386,-47l-295 8c-674,389 -1221,863 -1641,1420l-1046 0zm3461 1101c177,236 389,387 638,454l1132 -508 402 0c381,0 669,54 865,161 65,-91 99,-179 99,-259 0,-156 -78,-273 -231,-353 -155,-78 -386,-116 -694,-116l-806 0 -1405 621zm-318 -888c23,31 44,57 59,75 122,142 267,254 433,334l1164 -516 1228 8 23 -98c0,-298 -295,-449 -889,-449l-570 0 -1448 646zm-161 -1024c36,44 62,80 83,106 96,138 218,259 365,371l1086 -485 700 0 0 -46c0,-340 -246,-508 -739,-508l-248 0 -1247 562z"
   id="path9"
   style="fill:#ff0000;fill-opacity:1;stroke:none;stroke-opacity:0.66995072" />
 </g>
</svg>